<svg width="1600" height="1200" viewBox="0 0 1600 1200" fill="none" xmlns="http://www.w3.org/2000/svg">
  <defs>
    <linearGradient id="sky" x1="800" y1="0" x2="800" y2="1200" gradientUnits="userSpaceOnUse">
      <stop offset="0" stop-color="#20101F"/>
      <stop offset="0.28" stop-color="#5E274D"/>
      <stop offset="0.58" stop-color="#D95B5B"/>
      <stop offset="0.8" stop-color="#F7B15F"/>
      <stop offset="1" stop-color="#F8E8A8"/>
    </linearGradient>
    <linearGradient id="sea" x1="800" y1="740" x2="800" y2="1200" gradientUnits="userSpaceOnUse">
      <stop offset="0" stop-color="#0E3A56"/>
      <stop offset="1" stop-color="#05101B"/>
    </linearGradient>
    <radialGradient id="sun" cx="0" cy="0" r="1" gradientUnits="userSpaceOnUse" gradientTransform="translate(1090 290) rotate(90) scale(260 260)">
      <stop offset="0" stop-color="#FFD778"/>
      <stop offset="1" stop-color="#FF9C5E" stop-opacity="0"/>
    </radialGradient>
    <filter id="grain" x="-20%" y="-20%" width="140%" height="140%">
      <feTurbulence type="fractalNoise" baseFrequency="0.95" numOctaves="2" stitchTiles="stitch"/>
      <feColorMatrix type="saturate" values="0"/>
      <feComponentTransfer>
        <feFuncA type="table" tableValues="0 0.04"/>
      </feComponentTransfer>
    </filter>
  </defs>

  <rect width="1600" height="1200" fill="url(#sky)"/>
  <rect width="1600" height="1200" fill="url(#sun)"/>

  <g opacity="0.22" stroke="#FBEAC2" stroke-width="18">
    <path d="M330 172H1260"/>
    <path d="M260 238H1330"/>
    <path d="M180 304H1410"/>
    <path d="M120 370H1480"/>
    <path d="M60 436H1540"/>
  </g>

  <path d="M0 756C142 714 270 708 383 726C495 744 600 774 723 774C862 774 954 724 1088 712C1262 696 1425 736 1600 784V1200H0V756Z" fill="url(#sea)"/>

  <g opacity="0.95">
    <path d="M124 858L236 710L332 858H294L258 802V858H200V802L166 858H124Z" fill="#112535"/>
    <path d="M1450 874L1328 706L1224 874H1262L1302 812V874H1362V812L1402 874H1450Z" fill="#102233"/>
  </g>

  <g opacity="0.9" fill="#0B1523">
    <path d="M164 760H226V964H164V760Z"/>
    <path d="M222 700H274V964H222V700Z"/>
    <path d="M270 748H328V964H270V748Z"/>
    <path d="M326 672H396V964H326V672Z"/>
    <path d="M394 738H452V964H394V738Z"/>
    <path d="M460 784H518V964H460V784Z"/>

    <path d="M1110 744H1178V964H1110V744Z"/>
    <path d="M1180 690H1240V964H1180V690Z"/>
    <path d="M1240 626H1318V964H1240V626Z"/>
    <path d="M1320 708H1378V964H1320V708Z"/>
    <path d="M1382 770H1444V964H1382V770Z"/>
  </g>

  <g>
    <path d="M540 728C614 676 686 652 790 652C894 652 970 676 1046 728" stroke="#FFB45F" stroke-width="18" stroke-linecap="round"/>
    <path d="M540 728C614 784 686 810 790 810C894 810 970 784 1046 728" stroke="#FF7D5B" stroke-width="18" stroke-linecap="round"/>
    <path d="M558 772C624 814 694 836 790 836C886 836 956 814 1022 772" stroke="#FBEAC2" stroke-width="6" stroke-linecap="round" opacity="0.6"/>
    <path d="M606 804L606 964" stroke="#101927" stroke-width="14"/>
    <path d="M790 836L790 964" stroke="#101927" stroke-width="14"/>
    <path d="M974 804L974 964" stroke="#101927" stroke-width="14"/>
  </g>

  <g opacity="0.92" fill="#111C2A">
    <path d="M678 648H726V964H678V648Z"/>
    <path d="M738 604H792V964H738V604Z"/>
    <path d="M804 560H866V964H804V560Z"/>
    <path d="M882 626H938V964H882V626Z"/>
  </g>

  <path d="M470 964C542 850 584 778 668 670" stroke="#F7E8A8" stroke-width="4" opacity="0.25"/>
  <path d="M1130 964C1048 846 998 768 914 650" stroke="#F7E8A8" stroke-width="4" opacity="0.25"/>

  <rect width="1600" height="1200" filter="url(#grain)" opacity="0.55"/>
</svg>
