<svg width="1600" height="1200" viewBox="0 0 1600 1200" fill="none" xmlns="http://www.w3.org/2000/svg">
  <defs>
    <linearGradient id="sky" x1="800" y1="0" x2="800" y2="1200" gradientUnits="userSpaceOnUse">
      <stop offset="0" stop-color="#4FADE2"/>
      <stop offset="0.28" stop-color="#74C6EC"/>
      <stop offset="0.56" stop-color="#F3B27C"/>
      <stop offset="0.8" stop-color="#E3935E"/>
      <stop offset="1" stop-color="#C96D47"/>
    </linearGradient>
    <linearGradient id="sea" x1="740" y1="684" x2="744" y2="1200" gradientUnits="userSpaceOnUse">
      <stop offset="0" stop-color="#41A8CF"/>
      <stop offset="0.42" stop-color="#1A7AA8"/>
      <stop offset="1" stop-color="#0A355D"/>
    </linearGradient>
    <linearGradient id="sand" x1="1220" y1="620" x2="1514" y2="1200" gradientUnits="userSpaceOnUse">
      <stop offset="0" stop-color="#E4C38A"/>
      <stop offset="1" stop-color="#9A6C44"/>
    </linearGradient>
    <radialGradient id="sun" cx="0" cy="0" r="1" gradientUnits="userSpaceOnUse" gradientTransform="translate(238 212) rotate(90) scale(310 450)">
      <stop offset="0" stop-color="#FFF1BD" stop-opacity="0.9"/>
      <stop offset="0.46" stop-color="#FFD37B" stop-opacity="0.52"/>
      <stop offset="1" stop-color="#FFB564" stop-opacity="0"/>
    </radialGradient>
    <filter id="grain" x="-20%" y="-20%" width="140%" height="140%">
      <feTurbulence type="fractalNoise" baseFrequency="0.9" numOctaves="2" stitchTiles="stitch"/>
      <feColorMatrix type="saturate" values="0"/>
      <feComponentTransfer>
        <feFuncA type="table" tableValues="0 0.045"/>
      </feComponentTransfer>
    </filter>
    <linearGradient id="foam" x1="0" y1="0" x2="1" y2="1">
      <stop offset="0" stop-color="#FFFFFF" stop-opacity="0.94"/>
      <stop offset="1" stop-color="#E3F8FF" stop-opacity="0.08"/>
    </linearGradient>
  </defs>

  <rect width="1600" height="1200" fill="url(#sky)"/>
  <rect width="1600" height="1200" fill="url(#sun)"/>

  <g opacity="0.82" fill="#F4D6C0">
    <path d="M0 152C74 112 156 98 228 132C294 164 356 178 442 158C526 138 596 84 678 88C780 92 832 176 932 182C1010 186 1106 138 1196 126C1294 114 1382 138 1600 224V0H0V152Z"/>
    <path opacity="0.88" d="M0 240C96 200 182 196 262 230C354 270 454 278 560 228C654 184 760 144 850 166C966 194 1014 284 1126 292C1230 298 1348 234 1460 216C1516 208 1568 212 1600 220V0H0V240Z"/>
  </g>

  <g opacity="0.7" fill="#D1E8F8">
    <path d="M172 194C208 166 262 166 304 186C332 200 354 226 386 230C426 234 464 204 500 196C548 186 606 196 634 226C662 256 722 258 758 238C788 220 818 196 858 196C910 196 938 228 982 238C1038 250 1088 208 1144 206C1220 202 1258 258 1314 270C1396 286 1460 220 1530 222C1560 222 1580 228 1600 238V322H0V254C44 220 104 204 172 194Z"/>
  </g>

  <path d="M0 690C150 628 316 596 500 622C640 642 760 696 906 694C1068 692 1184 620 1356 624C1448 626 1528 646 1600 676V1200H0V690Z" fill="url(#sea)"/>
  <path d="M944 620C1102 638 1218 642 1326 686C1448 736 1522 862 1600 1006V1200H1086C1040 1062 994 968 956 890C908 792 868 722 802 650C838 632 880 622 944 620Z" fill="url(#sand)"/>

  <g opacity="0.92">
    <path d="M64 782C132 758 218 750 320 770C402 786 488 824 560 838C658 856 708 848 780 824" stroke="url(#foam)" stroke-width="18" stroke-linecap="round"/>
    <path d="M0 850C94 826 188 832 272 862C352 890 430 930 522 938C624 948 716 910 784 874" stroke="url(#foam)" stroke-width="22" stroke-linecap="round"/>
    <path d="M42 932C118 930 190 952 262 982C330 1008 394 1038 476 1042C548 1046 620 1020 710 972" stroke="url(#foam)" stroke-width="18" stroke-linecap="round"/>
  </g>

  <g opacity="0.85" fill="#294B75">
    <path d="M1140 436L1262 246L1388 436H1140Z"/>
    <path d="M1242 436L1360 272L1498 436H1242Z"/>
  </g>

  <g fill="#23496B">
    <path d="M198 394H260V632H198V394Z"/>
    <path d="M264 336H330V632H264V336Z"/>
    <path d="M336 392H408V632H336V392Z"/>
    <path d="M414 308H494V632H414V308Z"/>
    <path d="M506 362H574V632H506V362Z"/>
    <path d="M588 414H648V632H588V414Z"/>
    <path d="M958 378H1028V632H958V378Z"/>
    <path d="M1038 326H1102V632H1038V326Z"/>
    <path d="M1110 266H1192V632H1110V266Z"/>
    <path d="M1202 344H1266V632H1202V344Z"/>
    <path d="M1274 390H1342V632H1274V390Z"/>
    <path d="M1352 436H1412V632H1352V436Z"/>
  </g>

  <g opacity="0.95">
    <path d="M520 478C594 418 680 386 786 384C886 382 976 416 1058 478" stroke="#F2C56C" stroke-width="24" stroke-linecap="round"/>
    <path d="M520 478C594 548 680 576 786 576C886 576 976 546 1058 478" stroke="#E38552" stroke-width="24" stroke-linecap="round"/>
    <path d="M574 536C640 572 704 590 786 590C868 590 932 572 998 536" stroke="#FFF3D0" stroke-width="8" stroke-linecap="round" opacity="0.72"/>
    <path d="M612 548V650" stroke="#214663" stroke-width="16"/>
    <path d="M786 590V650" stroke="#214663" stroke-width="16"/>
    <path d="M960 548V650" stroke="#214663" stroke-width="16"/>
  </g>

  <g opacity="0.94">
    <circle cx="1166" cy="422" r="102" stroke="#D84342" stroke-width="9"/>
    <circle cx="1166" cy="422" r="10" fill="#D84342"/>
    <path d="M1166 320V524M1064 422H1268M1094 350L1238 494M1094 494L1238 350" stroke="#F4E6D0" stroke-width="4" opacity="0.8"/>
    <path d="M1156 524H1176V626H1156V524Z" fill="#6D3B3C"/>
  </g>

  <g opacity="0.95" fill="#102B3E">
    <path d="M1360 286C1372 256 1398 236 1432 228C1420 260 1400 286 1372 302L1360 286Z"/>
    <path d="M1406 314C1418 276 1450 254 1490 250C1476 290 1450 320 1414 334L1406 314Z"/>
    <path d="M1432 354C1448 316 1480 292 1522 288C1508 326 1482 360 1446 376L1432 354Z"/>
    <path d="M1390 304L1394 704" stroke="#2E624F" stroke-width="16" stroke-linecap="round"/>

    <path d="M1440 216C1458 176 1494 154 1540 152C1526 194 1496 228 1454 246L1440 216Z"/>
    <path d="M1498 248C1518 206 1554 186 1600 184C1584 224 1554 260 1512 278L1498 248Z"/>
    <path d="M1470 286C1492 248 1528 230 1574 230C1558 270 1528 304 1484 320L1470 286Z"/>
    <path d="M1478 250L1500 708" stroke="#2E624F" stroke-width="18" stroke-linecap="round"/>
  </g>

  <g opacity="0.86" fill="#102B3E">
    <path d="M124 364C140 330 172 306 214 302C198 342 170 370 132 382L124 364Z"/>
    <path d="M164 398C180 362 214 338 258 336C244 372 214 402 176 416L164 398Z"/>
    <path d="M146 392L164 684" stroke="#2E624F" stroke-width="14" stroke-linecap="round"/>
  </g>

  <g opacity="0.22">
    <path d="M1038 716C1080 762 1120 798 1166 836C1220 880 1264 916 1312 978" stroke="#FFF6E5" stroke-width="2"/>
    <path d="M1102 690C1164 744 1234 800 1310 870C1388 942 1452 1014 1506 1100" stroke="#FFF6E5" stroke-width="2"/>
  </g>

  <rect width="1600" height="1200" filter="url(#grain)" opacity="0.6"/>
</svg>
